<svg version="1.1" viewBox="0.0 0.0 1024.0 768.0" fill="none" stroke="none" stroke-linecap="square" stroke-miterlimit="10" xmlns:xlink="http://www.w3.org/1999/xlink" xmlns="http://www.w3.org/2000/svg"><clipPath id="p.0"><path d="m0 0l1024.0 0l0 768.0l-1024.0 0l0 -768.0z" clip-rule="nonzero"/></clipPath><g clip-path="url(#p.0)"><path fill="#000000" fill-opacity="0.0" d="m0 0l1024.0 0l0 768.0l-1024.0 0z" fill-rule="evenodd"/><path fill="#000000" fill-opacity="0.0" d="m651.5591 24.0l0 720.0" fill-rule="evenodd"/><path stroke="#000000" stroke-width="4.0" stroke-linejoin="round" stroke-linecap="butt" d="m651.5591 24.0l0 696.0" fill-rule="evenodd"/><path fill="#000000" stroke="#000000" stroke-width="4.0" stroke-linecap="butt" d="m644.95215 720.0l6.6069336 18.152405l6.6068726 -18.152405z" fill-rule="evenodd"/><path fill="#000000" fill-opacity="0.0" d="m651.5591 24.0c0 44.0 -16.0 66.0 -32.0 88.0c-16.0 22.0 -32.0 44.0 -32.0 88.0" fill-rule="evenodd"/><path stroke="#000000" stroke-width="4.0" stroke-linejoin="round" stroke-linecap="butt" d="m651.5591 24.0c0 44.0 -16.0 66.0 -32.0 88.0c-16.0 22.0 -32.0 44.0 -32.0 88.0" fill-rule="evenodd"/><path fill="#000000" fill-opacity="0.0" d="m651.5591 24.0c0 66.0 -62.0 99.0 -124.0 132.0c-62.00003 33.0 -124.00003 66.0 -124.00003 132.0" fill-rule="evenodd"/><path stroke="#000000" stroke-width="4.0" stroke-linejoin="round" stroke-linecap="butt" d="m651.5591 24.0c0 66.0 -62.0 99.0 -124.0 132.0c-62.00003 33.0 -124.00003 66.0 -124.00003 132.0" fill-rule="evenodd"/><path fill="#000000" fill-opacity="0.0" d="m587.5591 192.0l0 240.0" fill-rule="evenodd"/><path stroke="#000000" stroke-width="4.0" stroke-linejoin="round" stroke-linecap="butt" d="m587.5591 192.0l0 240.0" fill-rule="evenodd"/><path fill="#000000" fill-opacity="0.0" d="m403.55905 288.0l0 200.0" fill-rule="evenodd"/><path stroke="#000000" stroke-width="4.0" stroke-linejoin="round" stroke-linecap="butt" d="m403.55905 288.0l0 200.0" fill-rule="evenodd"/><path fill="#000000" fill-opacity="0.0" d="m587.5591 432.0c0 42.0 16.0 63.0 32.0 84.0c16.0 21.0 32.0 42.0 32.0 84.0" fill-rule="evenodd"/><path stroke="#000000" stroke-width="4.0" stroke-linejoin="round" stroke-linecap="butt" d="m587.5591 432.0c0 42.0 16.0 63.0 32.0 84.0c16.0 21.0 32.0 42.0 32.0 84.0" fill-rule="evenodd"/><path fill="#000000" fill-opacity="0.0" d="m403.55905 488.0c0 62.0 62.0 93.0 124.00003 124.0c62.0 31.0 124.0 62.0 124.0 124.0" fill-rule="evenodd"/><path stroke="#000000" stroke-width="4.0" stroke-linejoin="round" stroke-linecap="butt" d="m403.55905 488.0c0 62.0 62.0 93.0 124.00003 124.0c62.0 31.0 124.0 62.0 124.0 124.0" fill-rule="evenodd"/><path fill="#000000" fill-opacity="0.0" d="m363.55905 440.0c0 14.0 10.0 21.0 20.0 28.0c10.0 7.0 20.0 14.0 20.0 28.0" fill-rule="evenodd"/><path stroke="#000000" stroke-width="4.0" stroke-linejoin="round" stroke-linecap="butt" d="m363.55905 440.0c0 14.0 10.0 21.0 20.0 28.0c10.0 7.0 20.0 14.0 20.0 28.0" fill-rule="evenodd"/><path fill="#000000" fill-opacity="0.0" d="m403.55905 280.0c0 20.0 -10.0 30.0 -20.0 40.0c-10.0 10.0 -20.0 20.0 -20.0 40.0" fill-rule="evenodd"/><path stroke="#000000" stroke-width="4.0" stroke-linejoin="round" stroke-linecap="butt" d="m403.55905 280.0c0 20.0 -10.0 30.0 -20.0 40.0c-10.0 10.0 -20.0 20.0 -20.0 40.0" fill-rule="evenodd"/><path fill="#000000" fill-opacity="0.0" d="m363.55905 360.0l0 80.0" fill-rule="evenodd"/><path stroke="#000000" stroke-width="4.0" stroke-linejoin="round" stroke-linecap="butt" d="m363.55905 360.0l0 80.0" fill-rule="evenodd"/><path fill="#000000" fill-opacity="0.0" d="m443.55905 446.0019c0 10.503937 -10.0 15.75589 -20.0 21.007874c-10.0 5.251953 -20.0 10.503937 -20.0 21.007874" fill-rule="evenodd"/><path stroke="#000000" stroke-width="4.0" stroke-linejoin="round" stroke-linecap="butt" d="m443.55905 446.0019c0 10.503937 -10.0 15.75589 -20.0 21.007874c-10.0 5.251953 -20.0 10.503937 -20.0 21.007874" fill-rule="evenodd"/><path fill="#000000" fill-opacity="0.0" d="m403.55905 320.0c0 16.503937 10.0 24.75592 20.0 33.007874c10.0 8.251984 20.0 16.503937 20.0 33.007874" fill-rule="evenodd"/><path stroke="#000000" stroke-width="4.0" stroke-linejoin="round" stroke-linecap="butt" d="m403.55905 320.0c0 16.503937 10.0 24.75592 20.0 33.007874c10.0 8.251984 20.0 16.503937 20.0 33.007874" fill-rule="evenodd"/><path fill="#000000" fill-opacity="0.0" d="m443.55905 386.00098l0 60.0" fill-rule="evenodd"/><path stroke="#000000" stroke-width="4.0" stroke-linejoin="round" stroke-linecap="butt" d="m443.55905 386.00098l0 60.0" fill-rule="evenodd"/><path fill="#000000" fill-opacity="0.0" d="m656.0 440.0l0 -200.0l27.559082 0l0 200.0z" fill-rule="evenodd"/><path fill="#000000" d="m674.5795 366.78473l-9.546875 0l0 -1.90625l6.765625 -2.25q0.9375 -0.3125 1.40625 -0.46875q-0.515625 -0.15625 -1.53125 -0.5l-6.640625 -2.28125l0 -1.703125l9.546875 0l0 1.21875l-7.984375 0l7.984375 2.765625l0 1.140625l-8.125 2.765625l8.125 0l0 1.21875zm0 -10.102417l-9.546875 -3.65625l0 -1.359375l9.546875 -3.90625l0 1.4375l-2.890625 1.109375l0 3.984375l2.890625 1.046875l0 1.34375zm-3.921875 -2.75l0 -3.234375l-2.640625 1.0q-1.203125 0.453125 -1.96875 0.671875q0.90625 0.1875 1.8125 0.515625l2.796875 1.046875zm0.859375 -6.7491455l-0.109375 -1.203125q0.71875 -0.078125 1.1875 -0.390625q0.453125 -0.3125 0.734375 -0.953125q0.28125 -0.65625 0.28125 -1.46875q0 -0.71875 -0.21875 -1.265625q-0.21875 -0.5625 -0.578125 -0.828125q-0.375 -0.265625 -0.828125 -0.265625q-0.453125 0 -0.78125 0.265625q-0.328125 0.25 -0.5625 0.84375q-0.15625 0.390625 -0.46875 1.703125q-0.3125 1.3125 -0.59375 1.84375q-0.359375 0.671875 -0.890625 1.015625q-0.53125 0.328125 -1.1875 0.328125q-0.71875 0 -1.34375 -0.40625q-0.625 -0.40625 -0.953125 -1.1875q-0.328125 -0.796875 -0.328125 -1.765625q0 -1.046875 0.34375 -1.859375q0.34375 -0.8125 1.015625 -1.25q0.65625 -0.4375 1.484375 -0.46875l0.09375 1.203125q-0.90625 0.109375 -1.359375 0.671875q-0.46875 0.5625 -0.46875 1.65625q0 1.140625 0.421875 1.671875q0.421875 0.515625 1.015625 0.515625q0.515625 0 0.84375 -0.359375q0.328125 -0.375 0.6875 -1.90625q0.34375 -1.546875 0.59375 -2.109375q0.390625 -0.84375 0.984375 -1.234375q0.578125 -0.390625 1.359375 -0.390625q0.75 0 1.4375 0.4375q0.671875 0.421875 1.046875 1.25q0.359375 0.8125 0.359375 1.828125q0 1.296875 -0.375 2.171875q-0.375 0.875 -1.125 1.375q-0.765625 0.5 -1.71875 0.53125zm3.0625 -11.7491455l-8.421875 0l0 3.140625l-1.125 0l0 -7.5625l1.125 0l0 3.15625l8.421875 0l0 1.265625zm0 -5.7351074l-9.546875 0l0 -6.90625l1.125 0l0 5.640625l2.921875 0l0 -5.28125l1.125 0l0 5.28125l3.25 0l0 -5.859375l1.125 0l0 7.125zm0 -8.88974l-9.546875 0l0 -4.234375q0 -1.265625 0.265625 -1.921875q0.25 -0.671875 0.90625 -1.0625q0.65625 -0.40625 1.4375 -0.40625q1.015625 0 1.71875 0.65625q0.6875 0.65625 0.875 2.03125q0.25 -0.5 0.484375 -0.765625q0.5 -0.546875 1.265625 -1.046875l2.59375 -1.65625l0 1.578125l-1.984375 1.265625q-0.859375 0.5625 -1.3125 0.921875q-0.453125 0.34375 -0.640625 0.640625q-0.1875 0.28125 -0.25 0.5625q-0.046875 0.21875 -0.046875 0.703125l0 1.46875l4.234375 0l0 1.265625zm-5.328125 -1.265625l0 -2.71875q0 -0.859375 -0.171875 -1.34375q-0.1875 -0.484375 -0.578125 -0.734375q-0.390625 -0.265625 -0.859375 -0.265625q-0.671875 0 -1.109375 0.5q-0.4375 0.484375 -0.4375 1.546875l0 3.015625l3.15625 0z" fill-rule="nonzero"/><path fill="#000000" fill-opacity="0.0" d="m336.0 496.0l0 -200.0l27.559052 0l0 200.0z" fill-rule="evenodd"/><path fill="#000000" d="m354.57953 414.22882l-9.546875 0l0 -3.28125q0 -1.109375 0.140625 -1.703125q0.1875 -0.8125 0.6875 -1.390625q0.640625 -0.765625 1.640625 -1.140625q0.984375 -0.375 2.25 -0.375q1.09375 0 1.9375 0.265625q0.828125 0.25 1.390625 0.65625q0.546875 0.390625 0.859375 0.859375q0.3125 0.46875 0.484375 1.140625q0.15625 0.65625 0.15625 1.53125l0 3.4375zm-1.125 -1.265625l0 -2.03125q0 -0.9375 -0.171875 -1.46875q-0.1875 -0.546875 -0.5 -0.875q-0.453125 -0.4375 -1.203125 -0.6875q-0.765625 -0.25 -1.84375 -0.25q-1.5 0 -2.296875 0.5q-0.8125 0.484375 -1.078125 1.1875q-0.203125 0.5 -0.203125 1.625l0 2.0l7.296875 0zm1.125 -8.375153l-9.546875 0l0 -6.90625l1.125 0l0 5.640625l2.921875 0l0 -5.28125l1.125 0l0 5.28125l3.25 0l0 -5.859375l1.125 0l0 7.125zm0 -11.5928955l-9.546875 3.6875l0 -1.359375l6.9375 -2.484375q0.828125 -0.296875 1.5625 -0.5q-0.78125 -0.21875 -1.5625 -0.515625l-6.9375 -2.578125l0 -1.28125l9.546875 3.734375l0 1.296875zm-1.125 -15.545868l1.125 0l0 6.296875q-0.421875 0.015625 -0.8125 -0.140625q-0.640625 -0.234375 -1.265625 -0.765625q-0.625 -0.53125 -1.453125 -1.53125q-1.265625 -1.5625 -2.015625 -2.109375q-0.75 -0.546875 -1.40625 -0.546875q-0.703125 0 -1.171875 0.5q-0.484375 0.5 -0.484375 1.296875q0 0.859375 0.515625 1.375q0.5 0.5 1.390625 0.5l-0.109375 1.203125q-1.359375 -0.125 -2.0625 -0.921875q-0.703125 -0.8125 -0.703125 -2.171875q0 -1.375 0.765625 -2.171875q0.75 -0.8125 1.875 -0.8125q0.578125 0 1.140625 0.234375q0.546875 0.234375 1.15625 0.78125q0.609375 0.546875 1.671875 1.8125q0.890625 1.046875 1.21875 1.359375q0.3125 0.296875 0.625 0.484375l0 -4.671875z" fill-rule="nonzero"/><path fill="#000000" fill-opacity="0.0" d="m443.55905 512.0l0 -200.0l27.559052 0l0 200.0z" fill-rule="evenodd"/><path fill="#000000" d="m462.13858 430.22882l-9.546875 0l0 -3.28125q0 -1.109375 0.140625 -1.703125q0.1875 -0.8125 0.6875 -1.390625q0.640625 -0.765625 1.640625 -1.140625q0.984375 -0.375 2.25 -0.375q1.09375 0 1.9375 0.265625q0.828125 0.25 1.390625 0.65625q0.546875 0.390625 0.859375 0.859375q0.3125 0.46875 0.484375 1.140625q0.15625 0.65625 0.15625 1.53125l0 3.4375zm-1.125 -1.265625l0 -2.03125q0 -0.9375 -0.171875 -1.46875q-0.1875 -0.546875 -0.5 -0.875q-0.453125 -0.4375 -1.203125 -0.6875q-0.765625 -0.25 -1.84375 -0.25q-1.5 0 -2.296875 0.5q-0.8125 0.484375 -1.078125 1.1875q-0.203125 0.5 -0.203125 1.625l0 2.0l7.296875 0zm1.125 -8.375153l-9.546875 0l0 -6.90625l1.125 0l0 5.640625l2.921875 0l0 -5.28125l1.125 0l0 5.28125l3.25 0l0 -5.859375l1.125 0l0 7.125zm0 -11.5928955l-9.546875 3.6875l0 -1.359375l6.9375 -2.484375q0.828125 -0.296875 1.5625 -0.5q-0.78125 -0.21875 -1.5625 -0.515625l-6.9375 -2.578125l0 -1.28125l9.546875 3.734375l0 1.296875zm0 -13.811493l0 1.171875l-7.46875 0q0.40625 0.421875 0.8125 1.109375q0.40625 0.6875 0.609375 1.234375l-1.140625 0q-0.453125 -0.984375 -1.109375 -1.71875q-0.671875 -0.734375 -1.28125 -1.03125l0 -0.765625l9.578125 0z" fill-rule="nonzero"/><path fill="#000000" fill-opacity="0.0" d="m352.6614 233.5433l162.92917 -115.9685l15.968506 22.456688l-162.92917 115.968506z" fill-rule="evenodd"/><path fill="#000000" d="m416.32004 211.03589l-5.5324707 -7.7803955l5.244629 -3.7329865l0.651947 0.9168396l-4.2135315 2.9990692l1.7204285 2.4194489l3.640686 -2.5913544l0.651947 0.9168396l-3.640686 2.591339l2.5081787 3.5272827l-1.0311279 0.73391724zm6.594574 -4.6938477l-5.5324707 -7.7803802l5.626526 -4.0048065l0.651947 0.91682434l-4.5954285 3.2709045l1.6932678 2.3812256l4.3026123 -3.0625l0.651947 0.9168396l-4.3026123 3.0625l1.8833923 2.6486511l4.7736206 -3.3977509l0.651947 0.9168396l-5.8047485 4.131653zm6.376892 -4.5388794l-2.5537415 -9.900574l1.1074829 -0.7882843l8.714905 5.5152283l-1.1711426 0.83358765l-2.5789185 -1.7124634l-3.2460938 2.3104706l0.8222656 2.9628296l-1.0947571 0.7792053zm-0.032348633 -4.7908783l2.6350708 -1.8755493l-2.3449707 -1.5721436q-1.0663757 -0.7177429 -1.6882935 -1.214859q0.37243652 0.84729004 0.63027954 1.7761383l0.7679138 2.8864136zm9.294617 -1.8017578l-4.8805237 -6.8635406l-2.5586853 1.8211823l-0.651947 -0.9168396l6.1611633 -4.3853455l0.651947 0.9168396l-2.5713806 1.830246l4.8805237 6.863556l-1.0310974 0.733902zm4.219055 -14.721268l1.0310974 -0.73391724l3.19635 4.495056q0.83303833 1.171524 1.0637512 2.062149q0.23434448 0.8688507 -0.15792847 1.8001404q-0.38858032 0.90948486 -1.5087891 1.7068176q-1.0947571 0.7792206 -2.057495 0.9082794q-0.9590454 0.10725403 -1.7716064 -0.38838196q-0.7998657 -0.5046997 -1.6781921 -1.7398834l-3.1963196 -4.495056l1.0310974 -0.73391724l3.19635 4.495056q0.71533203 1.0059662 1.2376099 1.3630066q0.5350342 0.34797668 1.1834412 0.2892151q0.6393738 -0.071517944 1.3140564 -0.5517273q1.1329346 -0.8063965 1.2417603 -1.651001q0.112457275 -0.86639404 -0.928833 -2.33078l-3.19635 -4.495056zm8.294952 5.814148l-5.5324707 -7.7803955l3.4497375 -2.4554443q1.0310974 -0.733902 1.719696 -0.89797974q0.69226074 -0.18586731 1.3907776 0.12243652q0.7112732 0.29925537 1.164032 0.9359436q0.588562 0.82769775 0.46136475 1.7812653q-0.13623047 0.9408417 -1.1477966 1.8909912q0.5522461 -0.0861969 0.90448 -0.049224854q0.7352905 0.09036255 1.5863037 0.42437744l2.8524475 1.1533966l-1.285675 0.91511536l-2.1810913 -0.8832855q-0.9562683 -0.37417603 -1.5116577 -0.5350647q-0.54263306 -0.1699524 -0.89315796 -0.15060425q-0.33779907 0.010284424 -0.6031494 0.12245178q-0.2053833 0.088638306 -0.5999756 0.3695221l-1.1965942 0.8516998l2.453827 3.450882l-1.0310974 0.73391724zm-2.0565796 -5.076172l2.2149658 -1.5765533q0.7001343 -0.4983368 0.9951477 -0.919281q0.28598022 -0.4336853 0.26327515 -0.8970032q-0.0099487305 -0.4723816 -0.2816162 -0.85440063q-0.38934326 -0.5475464 -1.0502319 -0.61416626q-0.64816284 -0.075668335 -1.5137634 0.5404663l-2.4568481 1.748703l1.829071 2.572235zm9.898193 -0.50527954l-5.5324707 -7.7803955l5.626526 -4.0048065l0.651947 0.9168396l-4.5954285 3.2708893l1.6932373 2.3812408l4.302643 -3.0625l0.651947 0.91682434l-4.302643 3.0625153l1.8834229 2.6486359l4.7736206 -3.3977509l0.651947 0.9168396l-5.8047485 4.131668zm13.454468 -9.576523l-0.9547119 0.6795349l-4.328186 -6.0867767q-0.10827637 0.5757141 -0.4329834 1.3054657q-0.3246765 0.7297516 -0.65249634 1.2124023l-0.66101074 -0.9295654q0.5393982 -0.94010925 0.75738525 -1.9007721q0.20895386 -0.97340393 0.09765625 -1.6421814l0.6237793 -0.44396973l5.5505676 7.8058624z" fill-rule="nonzero"/><path fill="#000000" fill-opacity="0.0" d="m560.0 416.0l0 -200.0l27.559082 0l0 200.0z" fill-rule="evenodd"/><path fill="#000000" d="m578.5795 351.07034l-9.546875 0l0 -6.4375l1.125 0l0 5.171875l2.96875 0l0 -4.46875l1.125 0l0 4.46875l4.328125 0l0 1.265625zm0 -8.094482l-9.546875 0l0 -6.90625l1.125 0l0 5.640625l2.921875 0l0 -5.28125l1.125 0l0 5.28125l3.25 0l0 -5.859375l1.125 0l0 7.125zm0 -7.8272705l-9.546875 -3.65625l0 -1.359375l9.546875 -3.90625l0 1.4375l-2.890625 1.109375l0 3.984375l2.890625 1.046875l0 1.34375zm-3.921875 -2.75l0 -3.234375l-2.640625 1.0q-1.203125 0.453125 -1.96875 0.671875q0.90625 0.1875 1.8125 0.515625l2.796875 1.046875zm3.921875 -8.618927l-8.421875 0l0 3.140625l-1.125 0l0 -7.5625l1.125 0l0 3.15625l8.421875 0l0 1.265625zm-9.546875 -11.969482l0 -1.265625l5.515625 0q1.4375 0 2.296875 0.328125q0.84375 0.3125 1.375 1.171875q0.515625 0.84375 0.515625 2.21875q0 1.34375 -0.453125 2.203125q-0.46875 0.84375 -1.34375 1.21875q-0.875 0.359375 -2.390625 0.359375l-5.515625 0l0 -1.265625l5.515625 0q1.234375 0 1.828125 -0.21875q0.59375 -0.234375 0.921875 -0.796875q0.3125 -0.5625 0.3125 -1.390625q0 -1.390625 -0.625 -1.96875q-0.640625 -0.59375 -2.4375 -0.59375l-5.515625 0zm9.546875 -3.3907776l-9.546875 0l0 -4.234375q0 -1.265625 0.265625 -1.921875q0.25 -0.671875 0.90625 -1.0625q0.65625 -0.40625 1.4375 -0.40625q1.015625 0 1.71875 0.65625q0.6875 0.65625 0.875 2.03125q0.25 -0.5 0.484375 -0.765625q0.5 -0.546875 1.265625 -1.046875l2.59375 -1.65625l0 1.578125l-1.984375 1.265625q-0.859375 0.5625 -1.3125 0.921875q-0.453125 0.34375 -0.640625 0.640625q-0.1875 0.28125 -0.25 0.5625q-0.046875 0.21875 -0.046875 0.703125l0 1.46875l4.234375 0l0 1.265625zm-5.328125 -1.265625l0 -2.71875q0 -0.859375 -0.171875 -1.34375q-0.1875 -0.484375 -0.578125 -0.734375q-0.390625 -0.265625 -0.859375 -0.265625q-0.671875 0 -1.109375 0.5q-0.4375 0.484375 -0.4375 1.546875l0 3.015625l3.15625 0zm5.328125 -8.359528l-9.546875 0l0 -6.90625l1.125 0l0 5.640625l2.921875 0l0 -5.28125l1.125 0l0 5.28125l3.25 0l0 -5.859375l1.125 0l0 7.125zm-1.125 -18.248993l1.125 0l0 6.296875q-0.421875 0.015625 -0.8125 -0.140625q-0.640625 -0.234375 -1.265625 -0.765625q-0.625 -0.53125 -1.453125 -1.53125q-1.265625 -1.5625 -2.015625 -2.109375q-0.75 -0.546875 -1.40625 -0.546875q-0.703125 0 -1.171875 0.5q-0.484375 0.5 -0.484375 1.296875q0 0.859375 0.515625 1.375q0.5 0.5 1.390625 0.5l-0.109375 1.203125q-1.359375 -0.125 -2.0625 -0.921875q-0.703125 -0.8125 -0.703125 -2.171875q0 -1.375 0.765625 -2.171875q0.75 -0.8125 1.875 -0.8125q0.578125 0 1.140625 0.234375q0.546875 0.234375 1.15625 0.78125q0.609375 0.546875 1.671875 1.8125q0.890625 1.046875 1.21875 1.359375q0.3125 0.296875 0.625 0.484375l0 -4.671875z" fill-rule="nonzero"/></g></svg>